<?xml version="1.0" encoding="UTF-8"?>
<svg xmlns="http://www.w3.org/2000/svg" viewBox="0 0 1200 675">
  <defs>
    <radialGradient id="bg" cx="42%" cy="48%" r="72%">
      <stop offset="0%" stop-color="#0b1526"/>
      <stop offset="100%" stop-color="#04070e"/>
    </radialGradient>
    <radialGradient id="pglow" cx="50%" cy="50%" r="50%">
      <stop offset="0%" stop-color="#4272c4" stop-opacity="0.38"/>
      <stop offset="100%" stop-color="#4272c4" stop-opacity="0"/>
    </radialGradient>
    <radialGradient id="sglow" cx="50%" cy="50%" r="50%">
      <stop offset="0%" stop-color="#8c6cf4" stop-opacity="0.45"/>
      <stop offset="100%" stop-color="#8c6cf4" stop-opacity="0"/>
    </radialGradient>
    <radialGradient id="oglow" cx="50%" cy="50%" r="50%">
      <stop offset="0%" stop-color="#2aaa8e" stop-opacity="0.42"/>
      <stop offset="100%" stop-color="#2aaa8e" stop-opacity="0"/>
    </radialGradient>
    <radialGradient id="dglow" cx="50%" cy="50%" r="50%">
      <stop offset="0%" stop-color="#3060a8" stop-opacity="0.55"/>
      <stop offset="100%" stop-color="#3060a8" stop-opacity="0"/>
    </radialGradient>
    <linearGradient id="es2p1" x1="0%" y1="0%" x2="100%" y2="0%">
      <stop offset="0%" stop-color="#8c6cf4" stop-opacity="0.55"/>
      <stop offset="100%" stop-color="#4272c4" stop-opacity="0.2"/>
    </linearGradient>
    <linearGradient id="es2p2" x1="0%" y1="0%" x2="100%" y2="0%">
      <stop offset="0%" stop-color="#8c6cf4" stop-opacity="0.45"/>
      <stop offset="100%" stop-color="#4272c4" stop-opacity="0.18"/>
    </linearGradient>
    <linearGradient id="ep2o1" x1="0%" y1="0%" x2="100%" y2="0%">
      <stop offset="0%" stop-color="#4272c4" stop-opacity="0.22"/>
      <stop offset="100%" stop-color="#2aaa8e" stop-opacity="0.55"/>
    </linearGradient>
    <linearGradient id="ep2o2" x1="0%" y1="0%" x2="100%" y2="0%">
      <stop offset="0%" stop-color="#4272c4" stop-opacity="0.18"/>
      <stop offset="100%" stop-color="#2aaa8e" stop-opacity="0.48"/>
    </linearGradient>
    <linearGradient id="epp" x1="0%" y1="0%" x2="100%" y2="0%">
      <stop offset="0%" stop-color="#4272c4" stop-opacity="0.22"/>
      <stop offset="100%" stop-color="#4272c4" stop-opacity="0.22"/>
    </linearGradient>
    <filter id="ng" x="-80%" y="-80%" width="260%" height="260%">
      <feGaussianBlur in="SourceGraphic" stdDeviation="7" result="b"/>
      <feMerge><feMergeNode in="b"/><feMergeNode in="SourceGraphic"/></feMerge>
    </filter>
    <filter id="eg" x="-10%" y="-60%" width="120%" height="220%">
      <feGaussianBlur in="SourceGraphic" stdDeviation="2.5" result="b"/>
      <feMerge><feMergeNode in="b"/><feMergeNode in="SourceGraphic"/></feMerge>
    </filter>
    <filter id="sg" x="-80%" y="-80%" width="260%" height="260%">
      <feGaussianBlur in="SourceGraphic" stdDeviation="10" result="b"/>
      <feMerge><feMergeNode in="b"/><feMergeNode in="SourceGraphic"/></feMerge>
    </filter>
    <pattern id="dots" x="0" y="0" width="38" height="38" patternUnits="userSpaceOnUse">
      <circle cx="19" cy="19" r="0.7" fill="#1e3258"/>
    </pattern>
  </defs>

  <!-- Background -->
  <rect width="1200" height="675" fill="url(#bg)"/>
  <rect width="1200" height="675" fill="url(#dots)" opacity="0.45"/>

  <!-- Title -->
  <text x="600" y="44" text-anchor="middle" font-family="'Courier New',monospace" font-size="9.5" letter-spacing="5" fill="#1e3258">AGENT-BASED SIMULATION · SYNTHETIC USER NETWORK</text>
  <line x1="180" y1="56" x2="1020" y2="56" stroke="#0e1e38" stroke-width="0.8"/>

  <!-- ─── EDGES: Source → Personas ─────────────────────────────────────── -->
  <!-- Source → SP-01 -->
  <path d="M 129 338 C 218 268, 275 240, 310 228" stroke="url(#es2p1)" stroke-width="1.4" fill="none" filter="url(#eg)"/>
  <path d="M 129 338 C 218 268, 275 240, 310 228" stroke="#8c6cf4" stroke-width="0.5" fill="none" opacity="0.5"/>
  <!-- Source → SP-04 -->
  <path d="M 129 338 C 218 408, 278 452, 358 462" stroke="url(#es2p2)" stroke-width="1.4" fill="none" filter="url(#eg)"/>
  <path d="M 129 338 C 218 408, 278 452, 358 462" stroke="#8c6cf4" stroke-width="0.5" fill="none" opacity="0.4"/>
  <!-- Source → SP-06 (hub) -->
  <path d="M 129 338 C 280 338, 410 334, 542 332" stroke="url(#es2p1)" stroke-width="1.8" fill="none" filter="url(#eg)" opacity="0.8"/>
  <path d="M 129 338 C 280 338, 410 334, 542 332" stroke="#8c6cf4" stroke-width="0.6" fill="none" opacity="0.6"/>

  <!-- ─── EDGES: Persona ↔ Persona ─────────────────────────────────────── -->
  <!-- SP-01 ↔ SP-06 -->
  <path d="M 374 228 C 440 262, 504 308, 548 325" stroke="url(#epp)" stroke-width="1.2" fill="none" filter="url(#eg)"/>
  <!-- SP-02 ↔ SP-06 -->
  <path d="M 548 165 C 553 228, 560 278, 562 300" stroke="url(#epp)" stroke-width="1.1" fill="none" filter="url(#eg)"/>
  <!-- SP-03 ↔ SP-06 -->
  <path d="M 748 230 C 712 268, 665 308, 618 322" stroke="url(#epp)" stroke-width="1.2" fill="none" filter="url(#eg)"/>
  <!-- SP-04 ↔ SP-06 -->
  <path d="M 420 452 C 468 415, 518 382, 548 350" stroke="url(#epp)" stroke-width="1.1" fill="none" filter="url(#eg)"/>
  <!-- SP-05 ↔ SP-06 -->
  <path d="M 642 455 C 628 422, 612 390, 602 360" stroke="url(#epp)" stroke-width="1.1" fill="none" filter="url(#eg)"/>
  <!-- SP-01 ↔ SP-02 -->
  <path d="M 370 218 C 415 188, 488 170, 516 162" stroke="url(#epp)" stroke-width="0.9" fill="none" filter="url(#eg)" opacity="0.8"/>
  <!-- SP-02 ↔ SP-03 -->
  <path d="M 580 162 C 622 155, 702 178, 748 208" stroke="url(#epp)" stroke-width="0.9" fill="none" filter="url(#eg)" opacity="0.8"/>
  <!-- SP-03 ↔ SP-05 -->
  <path d="M 778 255 C 768 338, 738 418, 705 452" stroke="url(#epp)" stroke-width="0.9" fill="none" filter="url(#eg)" opacity="0.75"/>
  <!-- SP-04 ↔ SP-05 -->
  <path d="M 422 470 C 498 488, 570 482, 642 472" stroke="url(#epp)" stroke-width="0.9" fill="none" filter="url(#eg)" opacity="0.75"/>
  <!-- SP-01 ↔ SP-04 -->
  <path d="M 346 258 C 350 328, 362 398, 374 432" stroke="url(#epp)" stroke-width="0.8" fill="none" filter="url(#eg)" opacity="0.65"/>

  <!-- ─── EDGES: Personas → Output ──────────────────────────────────────── -->
  <!-- SP-06 → Output -->
  <path d="M 618 330 C 748 332, 945 338, 1071 338" stroke="url(#ep2o1)" stroke-width="1.8" fill="none" filter="url(#eg)"/>
  <path d="M 618 330 C 748 332, 945 338, 1071 338" stroke="#2aaa8e" stroke-width="0.6" fill="none" opacity="0.55"/>
  <!-- SP-03 → Output -->
  <path d="M 812 242 C 895 262, 1002 295, 1071 322" stroke="url(#ep2o2)" stroke-width="1.4" fill="none" filter="url(#eg)"/>
  <path d="M 812 242 C 895 262, 1002 295, 1071 322" stroke="#2aaa8e" stroke-width="0.5" fill="none" opacity="0.45"/>
  <!-- SP-05 → Output -->
  <path d="M 708 462 C 845 465, 998 420, 1071 355" stroke="url(#ep2o2)" stroke-width="1.3" fill="none" filter="url(#eg)"/>
  <path d="M 708 462 C 845 465, 998 420, 1071 355" stroke="#2aaa8e" stroke-width="0.5" fill="none" opacity="0.4"/>

  <!-- ─── EDGES: Data Nodes → Personas (very thin) ────────────────────── -->
  <!-- → SP-01 -->
  <path d="M 244 192 C 278 202, 308 212, 316 220" stroke="#3060a8" stroke-width="0.6" fill="none" opacity="0.45"/>
  <path d="M 218 265 C 256 255, 290 242, 313 234" stroke="#3060a8" stroke-width="0.6" fill="none" opacity="0.4"/>
  <path d="M 292 162 C 308 175, 322 192, 330 210" stroke="#3060a8" stroke-width="0.6" fill="none" opacity="0.38"/>
  <!-- → SP-02 -->
  <path d="M 462 122 C 494 132, 524 148, 534 155" stroke="#3060a8" stroke-width="0.6" fill="none" opacity="0.4"/>
  <path d="M 548 98 C 549 118, 549 135, 548 148" stroke="#3060a8" stroke-width="0.6" fill="none" opacity="0.4"/>
  <path d="M 628 125 C 608 130, 584 142, 568 152" stroke="#3060a8" stroke-width="0.6" fill="none" opacity="0.38"/>
  <!-- → SP-03 -->
  <path d="M 860 180 C 848 195, 828 212, 812 222" stroke="#3060a8" stroke-width="0.6" fill="none" opacity="0.4"/>
  <path d="M 902 260 C 878 258, 855 252, 815 246" stroke="#3060a8" stroke-width="0.6" fill="none" opacity="0.4"/>
  <path d="M 848 302 C 838 288, 822 270, 812 256" stroke="#3060a8" stroke-width="0.6" fill="none" opacity="0.38"/>
  <!-- → SP-04 -->
  <path d="M 298 508 C 328 492, 354 478, 372 468" stroke="#3060a8" stroke-width="0.6" fill="none" opacity="0.4"/>
  <path d="M 372 530 C 382 510, 386 490, 390 472" stroke="#3060a8" stroke-width="0.6" fill="none" opacity="0.4"/>
  <path d="M 448 518 C 438 502, 422 484, 410 472" stroke="#3060a8" stroke-width="0.6" fill="none" opacity="0.38"/>
  <!-- → SP-05 -->
  <path d="M 602 528 C 622 508, 644 488, 658 470" stroke="#3060a8" stroke-width="0.6" fill="none" opacity="0.4"/>
  <path d="M 688 515 C 686 498, 682 480, 678 465" stroke="#3060a8" stroke-width="0.6" fill="none" opacity="0.4"/>
  <path d="M 744 488 C 732 478, 718 468, 708 462" stroke="#3060a8" stroke-width="0.6" fill="none" opacity="0.38"/>

  <!-- ─── SOURCE NODE ────────────────────────────────────────────────────── -->
  <circle cx="105" cy="338" r="60" fill="url(#sglow)"/>
  <circle cx="105" cy="338" r="26" fill="#0a0718" stroke="#8c6cf4" stroke-width="1.5" filter="url(#ng)"/>
  <!-- Waveform lines inside source -->
  <polyline points="88,338 94,328 100,348 106,322 112,350 118,332 122,338" stroke="#8c6cf4" stroke-width="1.2" fill="none" opacity="0.8"/>
  <!-- Source label -->
  <text x="105" y="382" text-anchor="middle" font-family="'Courier New',monospace" font-size="7.5" letter-spacing="2.5" fill="#6a4ab8">FEEDBACK</text>
  <text x="105" y="393" text-anchor="middle" font-family="'Courier New',monospace" font-size="7.5" letter-spacing="2.5" fill="#6a4ab8">STREAM</text>
  <!-- Source tick marks -->
  <line x1="105" y1="310" x2="105" y2="304" stroke="#5a3a98" stroke-width="0.8"/>
  <line x1="79" y1="338" x2="73" y2="338" stroke="#5a3a98" stroke-width="0.8"/>
  <line x1="131" y1="338" x2="137" y2="338" stroke="#5a3a98" stroke-width="0.8"/>

  <!-- ─── DATA NODES ─────────────────────────────────────────────────────── -->
  <!-- Cluster near SP-01 -->
  <circle cx="244" cy="192" r="16" fill="url(#dglow)"/>
  <circle cx="244" cy="192" r="9" fill="#080e1c" stroke="#2a4a8a" stroke-width="1"/>
  <circle cx="244" cy="192" r="3" fill="#2a4a8a"/>
  <circle cx="218" cy="265" r="14" fill="url(#dglow)"/>
  <circle cx="218" cy="265" r="8" fill="#080e1c" stroke="#2a4a8a" stroke-width="1"/>
  <circle cx="218" cy="265" r="2.5" fill="#2a4a8a"/>
  <circle cx="292" cy="162" r="12" fill="url(#dglow)"/>
  <circle cx="292" cy="162" r="7" fill="#080e1c" stroke="#2a4a8a" stroke-width="0.8"/>
  <circle cx="292" cy="162" r="2" fill="#2a4a8a"/>
  <!-- Cluster near SP-02 -->
  <circle cx="462" cy="122" r="14" fill="url(#dglow)"/>
  <circle cx="462" cy="122" r="8" fill="#080e1c" stroke="#2a4a8a" stroke-width="1"/>
  <circle cx="462" cy="122" r="2.5" fill="#2a4a8a"/>
  <circle cx="548" cy="98" r="16" fill="url(#dglow)"/>
  <circle cx="548" cy="98" r="9" fill="#080e1c" stroke="#2a4a8a" stroke-width="1"/>
  <circle cx="548" cy="98" r="3" fill="#2a4a8a"/>
  <circle cx="628" cy="125" r="12" fill="url(#dglow)"/>
  <circle cx="628" cy="125" r="7" fill="#080e1c" stroke="#2a4a8a" stroke-width="0.8"/>
  <circle cx="628" cy="125" r="2" fill="#2a4a8a"/>
  <!-- Cluster near SP-03 -->
  <circle cx="860" cy="180" r="14" fill="url(#dglow)"/>
  <circle cx="860" cy="180" r="8" fill="#080e1c" stroke="#2a4a8a" stroke-width="1"/>
  <circle cx="860" cy="180" r="2.5" fill="#2a4a8a"/>
  <circle cx="902" cy="260" r="16" fill="url(#dglow)"/>
  <circle cx="902" cy="260" r="9" fill="#080e1c" stroke="#2a4a8a" stroke-width="1"/>
  <circle cx="902" cy="260" r="3" fill="#2a4a8a"/>
  <circle cx="848" cy="302" r="12" fill="url(#dglow)"/>
  <circle cx="848" cy="302" r="7" fill="#080e1c" stroke="#2a4a8a" stroke-width="0.8"/>
  <circle cx="848" cy="302" r="2" fill="#2a4a8a"/>
  <!-- Cluster near SP-04 -->
  <circle cx="298" cy="508" r="14" fill="url(#dglow)"/>
  <circle cx="298" cy="508" r="8" fill="#080e1c" stroke="#2a4a8a" stroke-width="1"/>
  <circle cx="298" cy="508" r="2.5" fill="#2a4a8a"/>
  <circle cx="372" cy="530" r="16" fill="url(#dglow)"/>
  <circle cx="372" cy="530" r="9" fill="#080e1c" stroke="#2a4a8a" stroke-width="1"/>
  <circle cx="372" cy="530" r="3" fill="#2a4a8a"/>
  <circle cx="448" cy="518" r="12" fill="url(#dglow)"/>
  <circle cx="448" cy="518" r="7" fill="#080e1c" stroke="#2a4a8a" stroke-width="0.8"/>
  <circle cx="448" cy="518" r="2" fill="#2a4a8a"/>
  <!-- Cluster near SP-05 -->
  <circle cx="602" cy="528" r="12" fill="url(#dglow)"/>
  <circle cx="602" cy="528" r="7" fill="#080e1c" stroke="#2a4a8a" stroke-width="0.8"/>
  <circle cx="602" cy="528" r="2" fill="#2a4a8a"/>
  <circle cx="688" cy="515" r="14" fill="url(#dglow)"/>
  <circle cx="688" cy="515" r="8" fill="#080e1c" stroke="#2a4a8a" stroke-width="1"/>
  <circle cx="688" cy="515" r="2.5" fill="#2a4a8a"/>
  <circle cx="744" cy="488" r="12" fill="url(#dglow)"/>
  <circle cx="744" cy="488" r="7" fill="#080e1c" stroke="#2a4a8a" stroke-width="0.8"/>
  <circle cx="744" cy="488" r="2" fill="#2a4a8a"/>

  <!-- ─── PERSONA NODES ──────────────────────────────────────────────────── -->
  <!-- SP-01 at (342, 228) -->
  <circle cx="342" cy="228" r="56" fill="url(#pglow)"/>
  <circle cx="342" cy="228" r="33" fill="#080e1c" stroke="#4272c4" stroke-width="1.5" filter="url(#ng)"/>
  <circle cx="342" cy="222" r="11" fill="none" stroke="#3060a8" stroke-width="0.9"/>
  <circle cx="338" cy="219" r="2" fill="#4272c4"/>
  <circle cx="346" cy="219" r="2" fill="#4272c4"/>
  <line x1="336" y1="226" x2="348" y2="226" stroke="#3060a8" stroke-width="0.8" opacity="0.7"/>
  <line x1="342" y1="233" x2="342" y2="240" stroke="#3060a8" stroke-width="1.2"/>
  <line x1="342" y1="211" x2="342" y2="206" stroke="#3060a8" stroke-width="0.8"/>
  <line x1="331" y1="222" x2="322" y2="222" stroke="#3060a8" stroke-width="0.8" opacity="0.5"/>
  <line x1="353" y1="222" x2="362" y2="222" stroke="#3060a8" stroke-width="0.8" opacity="0.5"/>
  <text x="342" y="252" text-anchor="middle" font-family="'Courier New',monospace" font-size="7" letter-spacing="1.5" fill="#4272c4">SP-01</text>
  <text x="342" y="278" text-anchor="middle" font-family="'Courier New',monospace" font-size="6.5" letter-spacing="0.5" fill="#2a4878">ENTERPRISE</text>
  <text x="342" y="288" text-anchor="middle" font-family="'Courier New',monospace" font-size="6.5" letter-spacing="0.5" fill="#2a4878">FREQUENT</text>

  <!-- SP-02 at (548, 162) -->
  <circle cx="548" cy="162" r="54" fill="url(#pglow)"/>
  <circle cx="548" cy="162" r="32" fill="#080e1c" stroke="#4272c4" stroke-width="1.5" filter="url(#ng)"/>
  <circle cx="548" cy="156" r="11" fill="none" stroke="#3060a8" stroke-width="0.9"/>
  <circle cx="544" cy="153" r="2" fill="#4272c4"/>
  <circle cx="552" cy="153" r="2" fill="#4272c4"/>
  <line x1="542" y1="160" x2="554" y2="160" stroke="#3060a8" stroke-width="0.8" opacity="0.7"/>
  <line x1="548" y1="167" x2="548" y2="174" stroke="#3060a8" stroke-width="1.2"/>
  <line x1="548" y1="145" x2="548" y2="140" stroke="#3060a8" stroke-width="0.8"/>
  <line x1="537" y1="156" x2="528" y2="156" stroke="#3060a8" stroke-width="0.8" opacity="0.5"/>
  <line x1="559" y1="156" x2="568" y2="156" stroke="#3060a8" stroke-width="0.8" opacity="0.5"/>
  <text x="548" y="186" text-anchor="middle" font-family="'Courier New',monospace" font-size="7" letter-spacing="1.5" fill="#4272c4">SP-02</text>
  <text x="548" y="210" text-anchor="middle" font-family="'Courier New',monospace" font-size="6.5" letter-spacing="0.5" fill="#2a4878">MOBILE-FIRST</text>

  <!-- SP-03 at (780, 228) -->
  <circle cx="780" cy="228" r="56" fill="url(#pglow)"/>
  <circle cx="780" cy="228" r="33" fill="#080e1c" stroke="#4272c4" stroke-width="1.5" filter="url(#ng)"/>
  <circle cx="780" cy="222" r="11" fill="none" stroke="#3060a8" stroke-width="0.9"/>
  <circle cx="776" cy="219" r="2" fill="#4272c4"/>
  <circle cx="784" cy="219" r="2" fill="#4272c4"/>
  <line x1="774" y1="226" x2="786" y2="226" stroke="#3060a8" stroke-width="0.8" opacity="0.7"/>
  <line x1="780" y1="233" x2="780" y2="240" stroke="#3060a8" stroke-width="1.2"/>
  <line x1="780" y1="211" x2="780" y2="206" stroke="#3060a8" stroke-width="0.8"/>
  <line x1="769" y1="222" x2="760" y2="222" stroke="#3060a8" stroke-width="0.8" opacity="0.5"/>
  <line x1="791" y1="222" x2="800" y2="222" stroke="#3060a8" stroke-width="0.8" opacity="0.5"/>
  <text x="780" y="252" text-anchor="middle" font-family="'Courier New',monospace" font-size="7" letter-spacing="1.5" fill="#4272c4">SP-03</text>
  <text x="780" y="278" text-anchor="middle" font-family="'Courier New',monospace" font-size="6.5" letter-spacing="0.5" fill="#2a4878">ROAD</text>
  <text x="780" y="288" text-anchor="middle" font-family="'Courier New',monospace" font-size="6.5" letter-spacing="0.5" fill="#2a4878">WARRIOR</text>

  <!-- SP-04 at (390, 462) -->
  <circle cx="390" cy="462" r="54" fill="url(#pglow)"/>
  <circle cx="390" cy="462" r="32" fill="#080e1c" stroke="#4272c4" stroke-width="1.5" filter="url(#ng)"/>
  <circle cx="390" cy="456" r="11" fill="none" stroke="#3060a8" stroke-width="0.9"/>
  <circle cx="386" cy="453" r="2" fill="#4272c4"/>
  <circle cx="394" cy="453" r="2" fill="#4272c4"/>
  <line x1="384" y1="460" x2="396" y2="460" stroke="#3060a8" stroke-width="0.8" opacity="0.7"/>
  <line x1="390" y1="467" x2="390" y2="474" stroke="#3060a8" stroke-width="1.2"/>
  <line x1="390" y1="445" x2="390" y2="440" stroke="#3060a8" stroke-width="0.8"/>
  <line x1="379" y1="456" x2="370" y2="456" stroke="#3060a8" stroke-width="0.8" opacity="0.5"/>
  <line x1="401" y1="456" x2="410" y2="456" stroke="#3060a8" stroke-width="0.8" opacity="0.5"/>
  <text x="390" y="486" text-anchor="middle" font-family="'Courier New',monospace" font-size="7" letter-spacing="1.5" fill="#4272c4">SP-04</text>
  <text x="390" y="510" text-anchor="middle" font-family="'Courier New',monospace" font-size="6.5" letter-spacing="0.5" fill="#2a4878">ADMIN</text>
  <text x="390" y="520" text-anchor="middle" font-family="'Courier New',monospace" font-size="6.5" letter-spacing="0.5" fill="#2a4878">BOOKER</text>

  <!-- SP-05 at (675, 462) -->
  <circle cx="675" cy="462" r="54" fill="url(#pglow)"/>
  <circle cx="675" cy="462" r="32" fill="#080e1c" stroke="#4272c4" stroke-width="1.5" filter="url(#ng)"/>
  <circle cx="675" cy="456" r="11" fill="none" stroke="#3060a8" stroke-width="0.9"/>
  <circle cx="671" cy="453" r="2" fill="#4272c4"/>
  <circle cx="679" cy="453" r="2" fill="#4272c4"/>
  <line x1="669" y1="460" x2="681" y2="460" stroke="#3060a8" stroke-width="0.8" opacity="0.7"/>
  <line x1="675" y1="467" x2="675" y2="474" stroke="#3060a8" stroke-width="1.2"/>
  <line x1="675" y1="445" x2="675" y2="440" stroke="#3060a8" stroke-width="0.8"/>
  <line x1="664" y1="456" x2="655" y2="456" stroke="#3060a8" stroke-width="0.8" opacity="0.5"/>
  <line x1="686" y1="456" x2="695" y2="456" stroke="#3060a8" stroke-width="0.8" opacity="0.5"/>
  <text x="675" y="486" text-anchor="middle" font-family="'Courier New',monospace" font-size="7" letter-spacing="1.5" fill="#4272c4">SP-05</text>
  <text x="675" y="510" text-anchor="middle" font-family="'Courier New',monospace" font-size="6.5" letter-spacing="0.5" fill="#2a4878">OCCASIONAL</text>

  <!-- SP-06 at (580, 330) — central hub, slightly larger -->
  <circle cx="580" cy="330" r="68" fill="url(#pglow)" opacity="1.2"/>
  <circle cx="580" cy="330" r="40" fill="#080e1c" stroke="#5a88d8" stroke-width="2" filter="url(#ng)"/>
  <!-- Second ring -->
  <circle cx="580" cy="330" r="44" fill="none" stroke="#3060a8" stroke-width="0.6" opacity="0.4"/>
  <circle cx="580" cy="323" r="14" fill="none" stroke="#3a62b0" stroke-width="1"/>
  <circle cx="576" cy="319" r="2.5" fill="#5a88d8"/>
  <circle cx="584" cy="319" r="2.5" fill="#5a88d8"/>
  <path d="M 573 327 Q 580 332, 587 327" stroke="#3a62b0" stroke-width="1" fill="none"/>
  <line x1="580" y1="337" x2="580" y2="346" stroke="#3a62b0" stroke-width="1.5"/>
  <line x1="580" y1="309" x2="580" y2="302" stroke="#3a62b0" stroke-width="0.9"/>
  <line x1="566" y1="323" x2="558" y2="323" stroke="#3a62b0" stroke-width="0.9" opacity="0.5"/>
  <line x1="594" y1="323" x2="602" y2="323" stroke="#3a62b0" stroke-width="0.9" opacity="0.5"/>
  <!-- Corner dots on hub -->
  <circle cx="562" cy="312" r="1.2" fill="#3a62b0" opacity="0.6"/>
  <circle cx="598" cy="312" r="1.2" fill="#3a62b0" opacity="0.6"/>
  <circle cx="562" cy="348" r="1.2" fill="#3a62b0" opacity="0.6"/>
  <circle cx="598" cy="348" r="1.2" fill="#3a62b0" opacity="0.6"/>
  <text x="580" y="360" text-anchor="middle" font-family="'Courier New',monospace" font-size="7.5" letter-spacing="2" fill="#5a88d8">SP-06</text>
  <text x="580" y="375" text-anchor="middle" font-family="'Courier New',monospace" font-size="6.5" letter-spacing="0.5" fill="#3060a8">HUB · POWER USER</text>

  <!-- ─── OUTPUT NODE ────────────────────────────────────────────────────── -->
  <circle cx="1095" cy="338" r="60" fill="url(#oglow)"/>
  <circle cx="1095" cy="338" r="26" fill="#040e10" stroke="#2aaa8e" stroke-width="1.5" filter="url(#ng)"/>
  <!-- Diamond inside output -->
  <polygon points="1095,318 1110,338 1095,358 1080,338" fill="none" stroke="#2aaa8e" stroke-width="1" opacity="0.8"/>
  <polygon points="1095,328 1103,338 1095,348 1087,338" fill="#2aaa8e" opacity="0.3"/>
  <text x="1095" y="382" text-anchor="middle" font-family="'Courier New',monospace" font-size="7.5" letter-spacing="2.5" fill="#1a886a">DESIGN</text>
  <text x="1095" y="393" text-anchor="middle" font-family="'Courier New',monospace" font-size="7.5" letter-spacing="2.5" fill="#1a886a">EVALUATION</text>

  <!-- ─── LEGEND ─────────────────────────────────────────────────────────── -->
  <g transform="translate(44, 590)">
    <circle cx="6" cy="6" r="6" fill="#080e1c" stroke="#8c6cf4" stroke-width="1.2"/>
    <text x="17" y="10" font-family="'Courier New',monospace" font-size="7" fill="#4a3a88" letter-spacing="1">FEEDBACK INPUT</text>
  </g>
  <g transform="translate(178, 590)">
    <circle cx="6" cy="6" r="6" fill="#080e1c" stroke="#4272c4" stroke-width="1.2"/>
    <text x="17" y="10" font-family="'Courier New',monospace" font-size="7" fill="#2a4878" letter-spacing="1">SYNTHETIC PERSONA AGENT</text>
  </g>
  <g transform="translate(450, 590)">
    <circle cx="6" cy="6" r="6" fill="#080e1c" stroke="#2a4a8a" stroke-width="1"/>
    <text x="17" y="10" font-family="'Courier New',monospace" font-size="7" fill="#1e3455" letter-spacing="1">FEEDBACK DATA NODE</text>
  </g>
  <g transform="translate(680, 590)">
    <circle cx="6" cy="6" r="6" fill="#040e10" stroke="#2aaa8e" stroke-width="1.2"/>
    <text x="17" y="10" font-family="'Courier New',monospace" font-size="7" fill="#1a6a58" letter-spacing="1">EVALUATION OUTPUT</text>
  </g>

  <!-- Bottom rule -->
  <line x1="44" y1="618" x2="1156" y2="618" stroke="#0e1e38" stroke-width="0.6"/>
  <text x="600" y="632" text-anchor="middle" font-family="'Courier New',monospace" font-size="7" letter-spacing="3" fill="#0e1e38">SIMULATION ROUND N · MONTHLY CADENCE · QUALTRICS → GITHUB → EVALUATION</text>
</svg>
